<svg xmlns="http://www.w3.org/2000/svg" xmlns:xlink="http://www.w3.org/1999/xlink" width="1080" zoomAndPan="magnify" viewBox="0 0 810 809.999993" height="1080" preserveAspectRatio="xMidYMid meet" version="1.0"><defs><clipPath id="28dc78503b"><path d="M 81 393 L 188 393 L 188 417 L 81 417 Z M 81 393 " clip-rule="nonzero"/></clipPath><clipPath id="02e477ddbd"><path d="M 622 393 L 729 393 L 729 417 L 622 417 Z M 622 393 " clip-rule="nonzero"/></clipPath></defs><path fill="#0a2b4d" d="M 405 561.96875 C 318.75 561.96875 248.574219 491.792969 248.574219 405.558594 C 248.574219 319.308594 318.75 249.132812 405 249.132812 C 491.25 249.132812 561.425781 319.308594 561.425781 405.558594 C 561.425781 491.792969 491.25 561.96875 405 561.96875 Z M 405 226.605469 C 306.316406 226.605469 226.054688 306.890625 226.054688 405.558594 C 226.054688 504.226562 306.316406 584.488281 405 584.488281 C 503.683594 584.488281 583.945312 504.226562 583.945312 405.558594 C 583.945312 306.890625 503.683594 226.605469 405 226.605469 " fill-opacity="1" fill-rule="nonzero"/><path fill="#0a2b4d" d="M 405 187.726562 C 411.226562 187.726562 416.261719 182.691406 416.261719 176.464844 L 416.261719 92.277344 C 416.261719 86.050781 411.226562 81.007812 405 81.007812 C 398.773438 81.007812 393.738281 86.050781 393.738281 92.277344 L 393.738281 176.464844 C 393.738281 182.691406 398.773438 187.726562 405 187.726562 " fill-opacity="1" fill-rule="nonzero"/><g clip-path="url(#28dc78503b)"><path fill="#0a2b4d" d="M 187.6875 405.03125 C 187.6875 404.988281 187.667969 404.949219 187.667969 404.90625 C 187.667969 404.863281 187.6875 404.828125 187.6875 404.785156 C 187.6875 398.558594 182.65625 393.523438 176.429688 393.523438 L 92.246094 393.523438 C 86.019531 393.523438 80.976562 398.558594 80.976562 404.785156 C 80.976562 404.828125 81.007812 404.863281 81.007812 404.90625 C 81.007812 404.949219 80.976562 404.988281 80.976562 405.03125 C 80.976562 411.257812 86.019531 416.289062 92.246094 416.289062 L 176.429688 416.289062 C 182.65625 416.289062 187.6875 411.257812 187.6875 405.03125 " fill-opacity="1" fill-rule="nonzero"/></g><path fill="#0a2b4d" d="M 281.070312 212.871094 C 283.136719 216.488281 286.941406 218.507812 290.8125 218.507812 C 292.726562 218.507812 294.660156 218.023438 296.445312 216.996094 C 301.832031 213.886719 303.675781 207 300.5625 201.613281 L 258.367188 128.539062 C 255.265625 123.113281 248.359375 121.285156 242.992188 124.410156 C 237.605469 127.527344 235.753906 134.410156 238.878906 139.796875 L 281.070312 212.871094 " fill-opacity="1" fill-rule="nonzero"/><path fill="#0a2b4d" d="M 593.035156 296.460938 C 595.097656 300.070312 598.886719 302.09375 602.777344 302.09375 C 604.6875 302.09375 606.625 301.609375 608.402344 300.582031 L 681.484375 258.40625 C 685.535156 256.0625 687.582031 251.585938 687.015625 247.21875 C 686.851562 245.699219 686.410156 244.1875 685.601562 242.777344 C 682.496094 237.351562 675.582031 235.53125 670.222656 238.65625 L 597.164062 280.832031 C 594.402344 282.429688 592.609375 285.027344 591.898438 287.898438 C 591.15625 290.691406 591.464844 293.765625 593.035156 296.460938 " fill-opacity="1" fill-rule="nonzero"/><path fill="#0a2b4d" d="M 513.554688 216.996094 C 515.339844 218.023438 517.273438 218.507812 519.1875 218.507812 C 523.058594 218.507812 526.863281 216.488281 528.929688 212.871094 L 571.121094 139.804688 C 574.246094 134.417969 572.394531 127.53125 567.007812 124.421875 C 561.640625 121.355469 554.734375 123.144531 551.632812 128.546875 L 509.4375 201.613281 C 506.324219 207 508.167969 213.886719 513.554688 216.996094 " fill-opacity="1" fill-rule="nonzero"/><path fill="#0a2b4d" d="M 405 622.089844 C 398.773438 622.089844 393.738281 627.121094 393.738281 633.347656 L 393.738281 717.546875 C 393.738281 723.765625 398.773438 728.804688 405 728.804688 C 411.226562 728.804688 416.261719 723.765625 416.261719 717.546875 L 416.261719 633.347656 C 416.261719 627.121094 411.226562 622.089844 405 622.089844 " fill-opacity="1" fill-rule="nonzero"/><g clip-path="url(#02e477ddbd)"><path fill="#0a2b4d" d="M 729.023438 404.785156 C 729.023438 398.558594 723.980469 393.523438 717.753906 393.523438 L 633.570312 393.523438 C 627.34375 393.523438 622.3125 398.558594 622.3125 404.785156 C 622.3125 404.828125 622.332031 404.863281 622.332031 404.90625 C 622.332031 404.949219 622.3125 404.988281 622.3125 405.03125 C 622.3125 411.257812 627.34375 416.289062 633.570312 416.289062 L 717.753906 416.289062 C 723.980469 416.289062 729.023438 411.257812 729.023438 405.03125 C 729.023438 404.988281 728.992188 404.949219 728.992188 404.90625 C 728.992188 404.863281 729.023438 404.828125 729.023438 404.785156 " fill-opacity="1" fill-rule="nonzero"/></g><path fill="#0a2b4d" d="M 296.445312 592.820312 C 291.078125 589.726562 284.164062 591.539062 281.070312 596.941406 L 238.878906 670.015625 C 235.753906 675.402344 237.605469 682.289062 242.992188 685.40625 C 244.773438 686.425781 246.710938 686.910156 248.621094 686.910156 C 252.496094 686.910156 256.300781 684.898438 258.367188 681.277344 L 300.5625 608.203125 C 303.675781 602.816406 301.832031 595.929688 296.445312 592.820312 " fill-opacity="1" fill-rule="nonzero"/><path fill="#0a2b4d" d="M 212.835938 280.832031 L 139.777344 238.65625 C 134.417969 235.558594 127.503906 237.375 124.398438 242.777344 C 123.589844 244.1875 123.148438 245.699219 122.984375 247.21875 C 122.417969 251.585938 124.464844 256.0625 128.515625 258.40625 L 201.566406 300.582031 C 203.351562 301.609375 205.292969 302.09375 207.199219 302.09375 C 211.070312 302.09375 214.882812 300.078125 216.949219 296.460938 C 217.761719 295.050781 218.199219 293.539062 218.367188 292.019531 C 218.925781 287.652344 216.882812 283.175781 212.835938 280.832031 " fill-opacity="1" fill-rule="nonzero"/><path fill="#0a2b4d" d="M 681.484375 551.410156 L 608.402344 509.230469 C 603.046875 506.148438 596.132812 507.964844 593.035156 513.351562 C 591.464844 516.050781 591.15625 519.125 591.898438 521.917969 C 592.617188 524.78125 594.410156 527.375 597.164062 528.976562 L 670.222656 571.160156 C 672.003906 572.1875 673.941406 572.671875 675.851562 572.671875 C 679.726562 572.671875 683.523438 570.652344 685.601562 567.039062 C 686.410156 565.628906 686.851562 564.117188 687.015625 562.597656 C 687.582031 558.230469 685.535156 553.753906 681.484375 551.410156 " fill-opacity="1" fill-rule="nonzero"/><path fill="#0a2b4d" d="M 528.929688 596.941406 C 525.835938 591.519531 518.921875 589.695312 513.554688 592.820312 C 508.167969 595.929688 506.324219 602.816406 509.4375 608.203125 L 551.632812 681.269531 C 553.699219 684.886719 557.503906 686.902344 561.378906 686.902344 C 563.289062 686.902344 565.226562 686.417969 567.007812 685.390625 C 572.394531 682.28125 574.246094 675.398438 571.121094 670.007812 L 528.929688 596.941406 " fill-opacity="1" fill-rule="nonzero"/><path fill="#0a2b4d" d="M 216.949219 513.351562 C 213.867188 507.929688 206.953125 506.105469 201.566406 509.230469 L 128.515625 551.410156 C 124.464844 553.753906 122.417969 558.230469 122.984375 562.597656 C 123.148438 564.117188 123.589844 565.628906 124.398438 567.039062 C 126.476562 570.652344 130.273438 572.671875 134.148438 572.671875 C 136.058594 572.671875 137.996094 572.1875 139.777344 571.160156 L 212.835938 528.980469 C 216.882812 526.640625 218.925781 522.164062 218.367188 517.792969 C 218.199219 516.273438 217.761719 514.765625 216.949219 513.351562 " fill-opacity="1" fill-rule="nonzero"/></svg>