<svg xmlns="http://www.w3.org/2000/svg" xmlns:xlink="http://www.w3.org/1999/xlink" width="1080" zoomAndPan="magnify" viewBox="0 0 810 809.999993" height="1080" preserveAspectRatio="xMidYMid meet" version="1.0"><defs><clipPath id="0b47ab5eba"><path d="M 218.257812 81.578125 L 591.734375 81.578125 L 591.734375 728.375 L 218.257812 728.375 Z M 218.257812 81.578125 " clip-rule="nonzero"/></clipPath></defs><g clip-path="url(#0b47ab5eba)"><path fill="#0a2b4d" d="M 405.003906 710.089844 C 312.113281 710.089844 236.542969 634.527344 236.542969 541.636719 C 236.542969 517.546875 241.527344 494.277344 251.328125 472.519531 L 251.472656 472.222656 C 253.273438 468.222656 296.058594 373.730469 330.960938 284.933594 L 331.128906 284.449219 C 331.996094 281.816406 333.023438 279.207031 334.175781 276.671875 L 334.460938 275.96875 C 336.46875 270.789062 338.765625 266.808594 341.261719 264.117188 L 341.96875 263.253906 C 356.585938 243.066406 380.148438 231.023438 405.003906 231.023438 C 429.851562 231.023438 453.40625 243.066406 468.035156 263.253906 L 468.742188 264.117188 C 471.234375 266.796875 473.519531 270.789062 475.578125 276.074219 L 475.828125 276.671875 C 476.972656 279.199219 478 281.816406 478.867188 284.449219 L 479.050781 284.933594 C 513.929688 373.730469 556.742188 468.222656 558.546875 472.222656 L 558.660156 472.472656 C 568.464844 494.277344 573.449219 517.546875 573.449219 541.636719 C 573.449219 634.527344 497.886719 710.089844 405.003906 710.089844 Z M 306.773438 146.5625 C 373.21875 144.96875 392.226562 192.023438 397.359375 212.628906 C 371.476562 213.558594 350.425781 207.398438 334.65625 194.273438 C 316.710938 179.328125 309.535156 158.445312 306.773438 146.5625 Z M 575.316406 464.976562 L 575.292969 464.90625 L 575.179688 464.65625 C 573.398438 460.703125 530.859375 366.785156 496.140625 278.46875 C 495.113281 275.378906 493.925781 272.316406 492.574219 269.359375 L 492.574219 269.339844 C 489.808594 262.234375 486.425781 256.441406 482.519531 252.09375 C 467 230.925781 443.46875 217.121094 417.808594 213.628906 C 419.066406 198.601562 423.140625 183.425781 428.59375 169.628906 C 442.878906 133.558594 471.363281 108.363281 509.261719 99.507812 C 520.734375 96.820312 515.867188 79.167969 504.394531 81.847656 C 453.949219 93.640625 418.03125 133.933594 404.738281 181.980469 C 390.203125 154.488281 359.4375 123.160156 295.214844 128.917969 L 286.222656 129.71875 L 286.910156 138.730469 C 287.046875 140.445312 290.535156 181.183594 322.769531 208.183594 C 332.480469 216.316406 343.695312 222.265625 356.300781 226.058594 C 345.15625 232.613281 335.292969 241.414062 327.472656 252.09375 C 323.550781 256.441406 320.167969 262.234375 317.417969 269.324219 L 317.410156 269.335938 C 316.070312 272.316406 314.867188 275.386719 313.835938 278.476562 C 279.125 366.785156 236.597656 460.703125 234.792969 464.703125 L 234.589844 465.160156 C 234.160156 466.097656 233.75 467.035156 233.339844 467.992188 L 232.644531 469.570312 L 232.652344 469.59375 C 223.089844 492.425781 218.25 516.632812 218.25 541.636719 C 218.25 644.605469 302.023438 728.375 404.996094 728.375 C 507.957031 728.375 591.726562 644.605469 591.726562 541.636719 C 591.726562 514.917969 586.195312 489.136719 575.316406 464.976562 Z M 410.675781 482.164062 C 430.835938 487.992188 446.628906 501.089844 456.484375 519.558594 C 462.039062 529.980469 477.832031 520.722656 472.300781 510.324219 C 460.257812 487.765625 440.066406 471.605469 415.539062 464.519531 C 404.199219 461.226562 399.351562 478.894531 410.675781 482.164062 Z M 463.503906 542.117188 C 463.867188 545.363281 464.050781 548.585938 464.074219 551.855469 C 464.097656 556.628906 468.28125 561.226562 473.214844 560.996094 C 478.175781 560.789062 482.40625 556.996094 482.382812 551.855469 C 482.359375 548.585938 482.175781 545.363281 481.8125 542.117188 C 481.511719 539.601562 480.988281 537.476562 479.136719 535.648438 C 477.535156 534.046875 474.929688 532.859375 472.644531 532.953125 C 468.164062 533.15625 462.90625 537.019531 463.503906 542.117188 Z M 404.996094 453.570312 C 358.007812 453.570312 319.777344 491.808594 319.777344 538.800781 C 319.777344 585.773438 358.007812 624.011719 404.996094 624.011719 C 451.984375 624.011719 490.199219 585.773438 490.199219 538.800781 C 490.199219 491.808594 451.984375 453.570312 404.996094 453.570312 Z M 404.996094 642.296875 C 347.925781 642.296875 301.492188 595.851562 301.492188 538.800781 C 301.492188 481.730469 347.925781 435.285156 404.996094 435.285156 C 462.0625 435.285156 508.484375 481.730469 508.484375 538.800781 C 508.484375 595.851562 462.0625 642.296875 404.996094 642.296875 " fill-opacity="1" fill-rule="nonzero"/></g></svg>