<svg xmlns="http://www.w3.org/2000/svg" xmlns:xlink="http://www.w3.org/1999/xlink" width="1080" zoomAndPan="magnify" viewBox="0 0 810 809.999993" height="1080" preserveAspectRatio="xMidYMid meet" version="1.0"><defs><clipPath id="9608a43fbb"><path d="M 282 90.71875 L 529 90.71875 L 529 297 L 282 297 Z M 282 90.71875 " clip-rule="nonzero"/></clipPath></defs><g clip-path="url(#9608a43fbb)"><path fill="#112942" d="M 369.527344 296.207031 C 376.523438 289.351562 384.921875 284.453125 394.015625 282.214844 L 394.015625 180.207031 C 394.015625 174.050781 399.054688 169.011719 405.210938 169.011719 C 411.367188 169.011719 416.402344 174.050781 416.402344 180.207031 L 416.402344 282.355469 C 425.640625 284.59375 434.035156 289.488281 440.890625 296.347656 C 458.660156 271.4375 485.246094 243.175781 523.585938 220.367188 C 526.667969 203.855469 528.34375 186.644531 528.34375 169.152344 C 528.34375 131.371094 488.886719 90.792969 461.179688 90.792969 C 439.910156 90.792969 420.742188 127.035156 415.5625 139.769531 C 413.886719 143.964844 409.6875 146.765625 405.210938 146.765625 C 400.730469 146.765625 396.535156 143.964844 394.855469 139.769531 C 389.816406 127.035156 370.367188 90.792969 349.238281 90.792969 C 321.535156 90.792969 282.074219 131.371094 282.074219 169.152344 C 282.074219 186.644531 283.613281 203.855469 286.832031 220.367188 C 325.171875 243.035156 351.617188 271.300781 369.527344 296.207031 Z M 369.527344 296.207031 " fill-opacity="1" fill-rule="nonzero"/></g><path fill="#112942" d="M 405.210938 370.507812 C 386.738281 370.507812 371.628906 385.621094 371.628906 404.089844 C 371.628906 422.558594 386.738281 437.671875 405.210938 437.671875 C 423.679688 437.671875 438.792969 422.558594 438.792969 404.089844 C 438.792969 385.621094 423.679688 370.507812 405.210938 370.507812 Z M 405.210938 415.285156 C 399.054688 415.285156 394.015625 410.246094 394.015625 404.089844 C 394.015625 397.933594 399.054688 392.894531 405.210938 392.894531 C 411.367188 392.894531 416.402344 397.933594 416.402344 404.089844 C 416.402344 410.246094 411.367188 415.285156 405.210938 415.285156 Z M 405.210938 415.285156 " fill-opacity="1" fill-rule="nonzero"/><path fill="#112942" d="M 313.558594 446.347656 C 314.539062 441.730469 315.9375 436.972656 317.894531 432.355469 C 297.464844 420.042969 285.152344 399.890625 285.710938 379.742188 L 188.882812 347.417969 C 183.007812 345.460938 179.789062 339.164062 181.746094 333.285156 C 183.707031 327.410156 190.003906 324.191406 195.878906 326.152344 L 291.308594 357.914062 C 301.804688 338.464844 325.171875 327.410156 351.058594 329.648438 C 352.175781 324.75 353.71875 320.132812 355.675781 315.796875 C 332.589844 281.09375 290.890625 237.296875 219.386719 214.070312 C 183.425781 202.457031 132.632812 227.363281 124.097656 253.808594 C 117.519531 273.957031 146.066406 303.484375 156.558594 312.296875 C 160.058594 315.238281 161.457031 319.992188 160.058594 324.332031 C 158.660156 328.667969 154.742188 331.746094 150.125 332.027344 C 136.410156 333.007812 95.972656 340.144531 89.535156 360.292969 C 81 386.738281 107.304688 436.691406 143.265625 448.445312 C 215.050781 471.8125 274.660156 460.898438 313.558594 446.347656 Z M 313.558594 446.347656 " fill-opacity="1" fill-rule="nonzero"/><path fill="#112942" d="M 596.210938 483.988281 C 592.152344 484.128906 588.09375 484.269531 584.175781 484.269531 C 549.335938 484.269531 519.667969 477.691406 497.421875 470.273438 C 495.742188 480.769531 491.265625 490.285156 484.269531 497.699219 L 548.632812 587.8125 C 552.273438 592.851562 551.011719 599.847656 545.976562 603.484375 C 544.015625 604.882812 541.777344 605.585938 539.539062 605.585938 C 536.042969 605.585938 532.542969 603.90625 530.445312 600.828125 L 465.519531 510.015625 C 460.0625 511.972656 454.183594 512.953125 448.308594 512.953125 C 433.613281 512.953125 418.082031 506.9375 405.210938 495.742188 C 401.710938 498.820312 397.933594 501.480469 394.15625 503.71875 C 391.078125 535.761719 392.894531 582.917969 415.425781 634.550781 C 422.980469 651.898438 432.496094 668.691406 443.828125 684.78125 C 455.164062 700.875 475.871094 712.628906 499.378906 716.265625 C 517.710938 719.203125 534.363281 716.546875 544.015625 709.410156 C 561.226562 696.535156 555.632812 654.417969 552.273438 640.566406 C 551.152344 636.089844 552.972656 631.46875 556.609375 628.8125 C 560.386719 626.152344 565.285156 626.011719 569.203125 628.53125 C 580.816406 635.949219 617.617188 654.417969 634.550781 641.683594 C 657.078125 624.753906 665.195312 566.824219 642.804688 535.199219 C 629.230469 515.890625 613.558594 498.679688 596.210938 483.988281 Z M 596.210938 483.988281 " fill-opacity="1" fill-rule="nonzero"/><path fill="#112942" d="M 452.363281 353.578125 C 449.148438 354.414062 445.789062 353.714844 443.128906 351.757812 C 440.472656 349.796875 438.792969 346.859375 438.511719 343.5 C 436.832031 320.972656 422.140625 303.203125 405.070312 303.203125 C 388 303.203125 373.445312 320.832031 371.628906 343.5 C 371.347656 346.71875 369.667969 349.796875 367.011719 351.757812 C 364.351562 353.714844 360.992188 354.414062 357.773438 353.578125 C 335.804688 348.257812 314.398438 356.792969 309.21875 372.886719 C 303.902344 389.117188 316.214844 408.425781 337.207031 417.101562 C 340.285156 418.363281 342.523438 420.882812 343.640625 423.960938 C 344.621094 427.039062 344.203125 430.535156 342.523438 433.335938 C 330.628906 452.644531 332.167969 475.59375 345.882812 485.527344 C 359.59375 495.460938 381.84375 489.863281 396.535156 472.652344 C 398.632812 470.136719 401.710938 468.734375 405.070312 468.734375 C 408.289062 468.734375 411.507812 470.136719 413.605469 472.652344 C 428.296875 489.863281 450.546875 495.601562 464.257812 485.527344 C 477.972656 475.59375 479.511719 452.644531 467.617188 433.335938 C 465.9375 430.535156 465.519531 427.175781 466.496094 423.960938 C 467.476562 420.882812 469.855469 418.363281 472.933594 417.101562 C 493.921875 408.425781 506.097656 389.117188 500.917969 372.886719 C 495.742188 356.792969 474.472656 348.257812 452.363281 353.578125 Z M 405.210938 460.058594 C 374.285156 460.058594 349.238281 435.011719 349.238281 404.089844 C 349.238281 373.164062 374.285156 348.117188 405.210938 348.117188 C 436.132812 348.117188 461.179688 373.164062 461.179688 404.089844 C 461.179688 435.011719 436.132812 460.058594 405.210938 460.058594 Z M 405.210938 460.058594 " fill-opacity="1" fill-rule="nonzero"/><path fill="#112942" d="M 371.066406 512.253906 C 362.113281 513.652344 353.015625 512.953125 344.761719 510.015625 L 279.835938 600.828125 C 277.597656 603.90625 274.238281 605.585938 270.742188 605.585938 C 268.5 605.585938 266.261719 604.882812 264.304688 603.484375 C 259.265625 599.847656 258.148438 592.851562 261.644531 587.8125 L 326.011719 497.699219 C 319.015625 490.285156 314.539062 480.769531 312.859375 470.273438 C 289.351562 478.109375 260.105469 484.269531 226.382812 484.269531 C 222.324219 484.269531 218.128906 484.128906 214.070312 483.988281 C 196.859375 498.679688 181.1875 515.75 167.472656 535.199219 C 145.085938 566.824219 153.203125 624.753906 175.730469 641.683594 C 192.800781 654.417969 229.601562 635.949219 241.074219 628.53125 C 244.992188 626.011719 249.890625 626.152344 253.667969 628.8125 C 257.449219 631.46875 259.125 636.089844 258.007812 640.566406 C 254.648438 654.277344 248.910156 696.394531 266.261719 709.410156 C 275.917969 716.6875 292.570312 719.203125 310.898438 716.265625 C 334.40625 712.488281 355.117188 700.734375 366.449219 684.78125 C 376.804688 670.089844 385.621094 654.699219 392.894531 638.886719 C 372.746094 590.191406 369.25 545.414062 371.066406 512.253906 Z M 371.066406 512.253906 " fill-opacity="1" fill-rule="nonzero"/><path fill="#112942" d="M 660.015625 332.308594 C 655.398438 332.027344 651.480469 328.949219 650.082031 324.613281 C 648.683594 320.273438 650.082031 315.515625 653.578125 312.578125 C 664.074219 303.761719 692.617188 274.238281 686.042969 254.089844 C 677.507812 227.640625 626.714844 202.734375 590.753906 214.347656 C 519.25 237.578125 477.550781 281.375 454.464844 316.074219 C 456.421875 320.414062 457.960938 325.03125 459.082031 329.929688 C 484.96875 327.691406 508.335938 338.605469 518.832031 358.195312 L 614.261719 326.429688 C 620.136719 324.472656 626.433594 327.691406 628.394531 333.566406 C 630.351562 339.445312 627.132812 345.742188 621.257812 347.699219 L 524.425781 380.023438 C 524.847656 400.171875 512.671875 420.320312 492.246094 432.636719 C 494.203125 437.253906 495.601562 441.871094 496.582031 446.628906 C 520.507812 455.441406 556.191406 464.257812 599.289062 461.738281 C 621.675781 460.339844 644.34375 456.003906 666.59375 448.867188 C 702.554688 437.113281 729 387.160156 720.324219 360.710938 C 714.027344 340.421875 673.589844 333.148438 660.015625 332.308594 Z M 660.015625 332.308594 " fill-opacity="1" fill-rule="nonzero"/></svg>