<svg xmlns="http://www.w3.org/2000/svg" xmlns:xlink="http://www.w3.org/1999/xlink" width="1080" zoomAndPan="magnify" viewBox="0 0 810 809.999993" height="1080" preserveAspectRatio="xMidYMid meet" version="1.0"><defs><clipPath id="61958f742d"><path d="M 115.289062 85 L 692 85 L 692 729 L 115.289062 729 Z M 115.289062 85 " clip-rule="nonzero"/></clipPath></defs><g clip-path="url(#61958f742d)"><path fill="#0a2b4d" d="M 320.03125 513.128906 C 313.105469 513.914062 305.980469 514.371094 298.789062 514.371094 C 197.554688 514.371094 115.335938 432.152344 115.335938 330.851562 C 115.335938 229.613281 197.554688 147.398438 298.789062 147.398438 C 378.460938 147.398438 446.363281 198.242188 471.65625 269.21875 C 478.976562 265.429688 486.429688 261.832031 494.007812 258.4375 L 620.605469 100.46875 C 634.066406 83.738281 658.511719 80.992188 675.242188 94.457031 C 691.972656 107.855469 694.652344 132.296875 681.253906 149.03125 L 553.09375 308.890625 C 552.828125 309.152344 552.636719 309.414062 552.371094 309.675781 C 546.164062 338.105469 537.40625 365.6875 524.53125 392.351562 C 524.464844 392.351562 524.464844 392.351562 524.464844 392.351562 C 519.039062 403.265625 506.296875 408.496094 493.945312 404.507812 C 485.90625 401.894531 478.191406 398.691406 470.875 394.769531 C 466.953125 405.226562 462.117188 415.222656 456.496094 424.699219 C 471.460938 422.285156 487.144531 421.042969 503.355469 421.042969 C 565.117188 421.042969 619.886719 439.734375 653.804688 468.296875 C 675.636719 486.597656 688.964844 508.945312 690.925781 533.128906 C 691.058594 533.652344 691.191406 534.238281 691.191406 534.894531 L 691.191406 614.171875 C 691.191406 614.628906 691.125 615.085938 690.992188 615.542969 C 689.492188 640.246094 676.027344 663.058594 653.804688 681.746094 C 619.886719 710.246094 565.117188 729 503.355469 729 C 441.53125 729 386.761719 710.246094 352.839844 681.746094 C 330.617188 663.058594 317.15625 640.246094 315.652344 615.542969 C 315.523438 615.085938 315.523438 614.628906 315.523438 614.171875 L 315.523438 534.894531 C 315.523438 534.238281 315.585938 533.652344 315.71875 533.128906 C 316.304688 526.265625 317.742188 519.601562 320.03125 513.128906 Z M 460.023438 275.558594 C 437.085938 208.636719 373.492188 160.46875 298.789062 160.46875 C 204.742188 160.46875 128.40625 236.800781 128.40625 330.851562 C 128.40625 424.898438 204.742188 501.300781 298.789062 501.300781 C 308.265625 501.300781 317.546875 500.515625 326.566406 499.015625 C 332.644531 488.292969 341.207031 478.292969 351.726562 469.210938 C 335.324219 475.484375 317.484375 478.945312 298.789062 478.945312 C 217.09375 478.945312 150.695312 412.609375 150.695312 330.851562 C 150.695312 249.089844 217.09375 182.753906 298.789062 182.753906 C 365.453125 182.753906 421.855469 226.867188 440.417969 287.453125 C 446.886719 283.269531 453.425781 279.351562 460.023438 275.558594 Z M 496.296875 271.703125 C 489.304688 274.972656 482.441406 278.304688 475.707031 281.898438 C 471.722656 283.992188 467.800781 286.144531 463.882812 288.433594 C 457.082031 292.355469 450.417969 296.472656 443.878906 300.851562 C 439.894531 303.53125 435.972656 306.277344 432.117188 309.152344 C 429.371094 311.175781 426.628906 313.269531 423.945312 315.425781 C 419.4375 319.085938 418.65625 325.6875 421.789062 331.046875 C 425.125 336.667969 428.847656 342.023438 432.898438 346.992188 C 436.363281 351.371094 440.15625 355.488281 444.144531 359.34375 C 447.410156 362.484375 450.808594 365.488281 454.402344 368.363281 C 454.402344 368.363281 454.46875 368.363281 454.46875 368.363281 C 457.410156 370.78125 460.351562 373.007812 463.425781 375.097656 C 467.210938 377.644531 471.070312 380 474.992188 382.21875 C 482.3125 386.207031 489.957031 389.476562 497.996094 392.089844 C 503.878906 393.984375 510.152344 391.828125 512.769531 386.601562 C 525.25 360.785156 533.683594 334.050781 539.628906 306.472656 C 532.4375 300.722656 503.550781 277.519531 496.296875 271.703125 Z M 602.371094 226.476562 L 671.058594 140.859375 C 679.945312 129.75 678.121094 113.542969 667.074219 104.652344 C 655.960938 95.699219 639.753906 97.527344 630.800781 108.640625 L 562.175781 194.257812 Z M 554.007812 204.449219 L 506.753906 263.335938 L 546.945312 295.621094 L 594.199219 236.671875 Z M 438.71875 428.164062 C 447.277344 415.878906 454.273438 402.417969 459.371094 388.101562 C 454.859375 385.160156 450.484375 382.027344 446.234375 378.5625 C 444.335938 377.058594 442.445312 375.421875 440.550781 373.855469 C 432.511719 400.324219 417.28125 423.71875 397.085938 441.628906 C 409.832031 436.136719 423.816406 431.5625 438.71875 428.164062 Z M 678.121094 539.207031 C 678.121094 516.398438 665.832031 495.417969 645.441406 478.292969 C 613.351562 451.367188 561.589844 434.113281 503.355469 434.113281 C 483.421875 434.113281 464.269531 436.074219 446.429688 439.867188 C 439.046875 441.367188 431.917969 443.199219 425.058594 445.289062 C 399.703125 453 377.808594 464.375 361.203125 478.292969 C 355.0625 483.523438 349.570312 489.078125 344.996094 494.960938 C 341.074219 499.992188 337.742188 505.285156 335.128906 510.710938 C 330.878906 519.792969 328.59375 529.335938 328.59375 539.207031 C 328.59375 546.855469 329.902344 554.238281 332.515625 561.363281 C 334.210938 566.066406 336.371094 570.578125 339.113281 575.019531 C 344.605469 584.039062 352.121094 592.472656 361.203125 600.183594 C 393.296875 627.113281 445.058594 644.363281 503.355469 644.363281 C 561.589844 644.363281 613.351562 627.113281 645.441406 600.183594 C 654.523438 592.472656 662.039062 584.039062 667.597656 575.019531 C 670.277344 570.578125 672.429688 566.066406 674.132812 561.363281 C 676.746094 554.238281 678.121094 546.855469 678.121094 539.207031 Z M 328.59375 610.773438 C 328.59375 633.648438 340.882812 654.625 361.203125 671.746094 C 393.296875 698.609375 445.058594 715.929688 503.355469 715.929688 C 561.589844 715.929688 613.351562 698.609375 645.441406 671.746094 C 665.832031 654.625 678.121094 633.648438 678.121094 610.773438 L 678.121094 582.800781 C 676.875 584.761719 675.570312 586.722656 674.132812 588.683594 C 668.578125 596.261719 661.78125 603.515625 653.804688 610.183594 C 619.886719 638.679688 565.117188 657.4375 503.355469 657.4375 C 441.53125 657.4375 386.761719 638.679688 352.839844 610.183594 C 344.867188 603.515625 338.070312 596.261719 332.515625 588.683594 C 331.078125 586.722656 329.769531 584.761719 328.59375 582.800781 Z M 429.113281 295.230469 C 413.425781 237.980469 361.007812 195.824219 298.789062 195.824219 C 224.285156 195.824219 163.765625 256.34375 163.765625 330.851562 C 163.765625 405.359375 224.285156 465.875 298.789062 465.875 C 362.121094 465.875 415.253906 422.285156 429.894531 363.460938 C 422.507812 355.621094 416.105469 347.058594 410.550781 337.714844 L 410.550781 337.648438 C 403.949219 326.472656 406.300781 312.878906 415.777344 305.230469 C 415.777344 305.230469 415.777344 305.230469 415.84375 305.230469 C 420.15625 301.769531 424.601562 298.433594 429.113281 295.230469 Z M 344.210938 547.703125 C 343.753906 544.894531 343.558594 542.082031 343.558594 539.207031 C 343.558594 527.378906 347.546875 516.007812 354.933594 505.613281 C 360.222656 498.164062 367.21875 491.171875 375.78125 484.894531 C 389.898438 474.4375 408.261719 465.683594 429.570312 459.535156 C 451.59375 453.199219 476.6875 449.535156 503.355469 449.535156 C 555.707031 449.535156 602.109375 463.589844 630.867188 484.894531 C 651.324219 500.058594 663.085938 518.949219 663.152344 539.140625 C 663.152344 539.140625 663.152344 539.207031 663.152344 539.207031 C 663.152344 541.363281 663.019531 543.519531 662.761719 545.609375 C 662.628906 546.332031 662.5625 547.050781 662.433594 547.703125 C 661.648438 552.605469 660.148438 557.441406 657.988281 562.082031 C 652.695312 573.582031 643.414062 584.304688 630.867188 593.582031 C 602.109375 614.886719 555.707031 628.941406 503.355469 628.941406 C 450.941406 628.941406 404.535156 614.886719 375.78125 593.582031 C 363.230469 584.304688 353.953125 573.582031 348.65625 562.082031 C 346.5 557.441406 344.996094 552.605469 344.210938 547.703125 Z M 643.085938 516.136719 C 638.445312 508.621094 631.582031 501.691406 623.085938 495.417969 C 596.097656 475.417969 552.4375 462.609375 503.355469 462.609375 C 454.207031 462.609375 410.550781 475.417969 383.554688 495.417969 C 367.675781 507.117188 357.675781 521.234375 356.695312 536.722656 C 356.628906 537.574219 356.628906 538.359375 356.628906 539.207031 C 356.628906 543.457031 357.285156 547.570312 358.527344 551.558594 C 359.246094 551.164062 359.898438 550.773438 360.550781 550.382812 C 364.996094 547.964844 369.113281 546.65625 373.230469 545.417969 C 378.199219 543.914062 383.230469 542.605469 389.046875 538.746094 C 393.753906 535.613281 396.953125 531.167969 400.160156 526.722656 C 400.355469 526.398438 400.617188 526.070312 400.8125 525.742188 C 404.667969 520.515625 408.523438 515.285156 413.6875 511.234375 C 419.765625 506.53125 427.410156 503.390625 435.320312 500.515625 C 443.292969 497.640625 451.527344 495.09375 458.523438 491.628906 C 469.894531 486.003906 478.585938 476.269531 490.546875 471.757812 C 499.171875 468.488281 507.667969 467.183594 516.820312 467.644531 C 530.019531 468.296875 540.933594 474.636719 551.523438 482.019531 C 560.542969 488.292969 569.234375 495.417969 579.5625 498.75 C 594.136719 503.457031 609.953125 504.304688 624.066406 508.164062 C 630.867188 509.992188 637.273438 512.476562 643.085938 516.136719 Z M 647.921875 552.015625 C 649.035156 548.816406 649.691406 545.480469 649.949219 542.082031 C 642.828125 529.40625 632.304688 523.980469 620.605469 520.773438 C 606.289062 516.851562 590.34375 515.941406 575.574219 511.167969 C 565.835938 508.03125 557.210938 502.085938 548.714844 496.007812 C 547.144531 494.894531 545.578125 493.785156 544.003906 492.738281 C 535.507812 486.726562 526.820312 481.234375 516.230469 480.714844 C 508.847656 480.386719 502.046875 481.367188 495.183594 483.980469 C 489.238281 486.203125 484.203125 489.796875 479.171875 493.523438 C 474.402344 497.054688 469.695312 500.710938 464.335938 503.324219 C 457.34375 506.855469 449.109375 509.335938 441.136719 512.148438 C 440.089844 512.542969 438.980469 512.933594 437.933594 513.324219 C 432.054688 515.484375 426.363281 517.96875 421.726562 521.5625 C 417.214844 525.089844 414.011719 529.792969 410.746094 534.371094 C 406.628906 540.121094 402.316406 545.609375 396.300781 549.597656 C 389.113281 554.371094 383.035156 556.132812 377.019531 557.964844 C 372.90625 559.140625 368.851562 560.449219 364.277344 563.453125 C 368.917969 570.511719 375.453125 577.113281 383.554688 583.058594 C 410.550781 603.058594 454.207031 615.867188 503.355469 615.867188 C 552.4375 615.867188 596.097656 603.058594 623.085938 583.058594 C 635.375 573.976562 644.132812 563.519531 647.921875 552.015625 Z M 647.921875 552.015625 " fill-opacity="1" fill-rule="evenodd"/></g></svg>