<svg xmlns="http://www.w3.org/2000/svg" xmlns:xlink="http://www.w3.org/1999/xlink" width="1080" zoomAndPan="magnify" viewBox="0 0 810 809.999993" height="1080" preserveAspectRatio="xMidYMid meet" version="1.0"><defs><clipPath id="c0be7f5071"><path d="M 228 78 L 581 78 L 581 724 L 228 724 Z M 228 78 " clip-rule="nonzero"/></clipPath><clipPath id="914855ec8d"><path d="M -12.132812 333.070312 L 406.296875 -85.359375 L 819.425781 327.769531 L 400.996094 746.199219 Z M -12.132812 333.070312 " clip-rule="nonzero"/></clipPath><clipPath id="bb1e7abc73"><path d="M -12.132812 333.070312 L 406.296875 -85.359375 L 819.425781 327.769531 L 400.996094 746.199219 Z M -12.132812 333.070312 " clip-rule="nonzero"/></clipPath></defs><g clip-path="url(#c0be7f5071)"><g clip-path="url(#914855ec8d)"><g clip-path="url(#bb1e7abc73)"><path fill="#0a2b4d" d="M 557.042969 78.828125 L 251.90625 78.828125 C 245.703125 78.828125 239.878906 81.246094 235.496094 85.628906 C 231.117188 90.007812 228.699219 95.84375 228.699219 102.035156 L 228.699219 162.203125 C 228.699219 175 239.109375 185.414062 251.90625 185.410156 L 265.660156 185.410156 L 265.660156 204.195312 C 265.65625 204.730469 265.710938 205.257812 265.816406 205.78125 C 265.828125 205.820312 265.832031 205.851562 265.84375 205.894531 C 265.941406 206.34375 266.078125 206.789062 266.25 207.21875 C 266.269531 207.265625 266.300781 207.316406 266.320312 207.363281 C 266.503906 207.773438 266.714844 208.171875 266.960938 208.546875 C 266.984375 208.582031 267.007812 208.613281 267.035156 208.648438 C 267.292969 209.027344 267.582031 209.382812 267.910156 209.710938 C 267.929688 209.734375 267.949219 209.753906 267.96875 209.773438 C 268.300781 210.101562 268.660156 210.402344 269.050781 210.667969 C 269.078125 210.683594 269.101562 210.699219 269.132812 210.71875 C 269.515625 210.972656 269.929688 211.199219 270.363281 211.386719 L 270.367188 211.390625 C 270.382812 211.394531 270.390625 211.40625 270.402344 211.40625 L 329.515625 236.613281 C 326.25 260.707031 317.507812 349.054688 355.910156 398.503906 L 355.910156 674.488281 C 355.910156 701.269531 377.695312 723.054688 404.476562 723.054688 C 417.863281 723.054688 430.003906 717.609375 438.800781 708.8125 C 447.59375 700.019531 453.042969 687.875 453.039062 674.488281 L 453.039062 398.496094 C 491.441406 349.042969 482.695312 260.695312 479.433594 236.601562 L 538.445312 211.390625 C 538.449219 211.386719 538.464844 211.382812 538.46875 211.375 L 538.484375 211.371094 C 538.917969 211.183594 539.332031 210.957031 539.710938 210.707031 C 539.742188 210.6875 539.765625 210.671875 539.792969 210.652344 C 540.183594 210.390625 540.542969 210.09375 540.867188 209.765625 C 540.882812 209.753906 540.902344 209.742188 540.917969 209.726562 C 540.921875 209.722656 540.933594 209.710938 540.941406 209.703125 C 541.265625 209.378906 541.550781 209.023438 541.808594 208.648438 C 541.832031 208.613281 541.863281 208.574219 541.886719 208.542969 C 542.132812 208.167969 542.351562 207.773438 542.523438 207.363281 C 542.542969 207.316406 542.570312 207.265625 542.589844 207.21875 C 542.773438 206.789062 542.902344 206.34375 543.003906 205.886719 C 543.007812 205.851562 543.023438 205.820312 543.03125 205.785156 C 543.132812 205.257812 543.191406 204.714844 543.183594 204.175781 L 543.183594 185.410156 L 557.042969 185.410156 C 563.246094 185.410156 569.070312 182.992188 573.453125 178.609375 C 577.839844 174.222656 580.25 168.394531 580.25 162.203125 L 580.25 102.035156 C 580.253906 89.242188 569.84375 78.828125 557.042969 78.828125 Z M 281.132812 94.300781 L 527.816406 94.300781 L 527.816406 109.5625 L 281.132812 109.5625 Z M 527.820312 125.035156 L 527.820312 139.210938 L 281.136719 139.210938 L 281.136719 125.023438 Z M 244.171875 162.207031 L 244.171875 102.039062 C 244.171875 99.972656 244.980469 98.03125 246.4375 96.574219 C 247.898438 95.113281 249.84375 94.3125 251.90625 94.304688 L 265.660156 94.304688 L 265.660156 169.949219 L 251.90625 169.949219 C 247.640625 169.941406 244.171875 166.46875 244.171875 162.207031 Z M 437.566406 674.496094 C 437.566406 692.738281 422.71875 707.585938 404.476562 707.585938 C 386.230469 707.585938 371.382812 692.738281 371.382812 674.496094 L 371.382812 513.773438 L 437.566406 513.773438 Z M 437.570312 498.300781 L 371.386719 498.300781 L 371.386719 477.023438 L 437.570312 477.023438 Z M 437.566406 461.550781 L 371.382812 461.550781 L 371.382812 440.273438 L 437.566406 440.273438 Z M 437.566406 424.796875 L 371.382812 424.796875 L 371.382812 403.519531 L 437.566406 403.519531 Z M 441.542969 388.042969 L 367.40625 388.042969 C 334.359375 344.183594 341.785156 262.945312 344.765625 239.566406 L 464.195312 239.566406 C 467.175781 262.9375 474.640625 344.136719 441.542969 388.042969 Z M 527.707031 199.160156 L 469.320312 224.101562 L 339.621094 224.101562 L 281.128906 199.152344 L 281.128906 185.417969 L 527.707031 185.414062 Z M 527.816406 169.945312 L 281.132812 169.945312 L 281.132812 154.683594 L 527.820312 154.679688 Z M 564.777344 102.039062 L 564.777344 162.207031 C 564.777344 164.273438 563.96875 166.214844 562.507812 167.675781 C 561.046875 169.140625 559.101562 169.941406 557.039062 169.945312 L 543.285156 169.945312 L 543.285156 94.300781 L 557.039062 94.300781 C 561.3125 94.300781 564.78125 97.773438 564.777344 102.039062 Z M 564.777344 102.039062 " fill-opacity="1" fill-rule="nonzero"/></g></g></g></svg>