<svg xmlns="http://www.w3.org/2000/svg" xmlns:xlink="http://www.w3.org/1999/xlink" width="1080" zoomAndPan="magnify" viewBox="0 0 810 809.999993" height="1080" preserveAspectRatio="xMidYMid meet" version="1.0"><defs><clipPath id="01b7c081fd"><path d="M 81.097656 98.820312 L 607.753906 98.820312 L 607.753906 728.820312 L 81.097656 728.820312 Z M 81.097656 98.820312 " clip-rule="nonzero"/></clipPath><clipPath id="395f7a1462"><path d="M 691.054688 453.746094 L 728.890625 453.746094 L 728.890625 486.34375 L 691.054688 486.34375 Z M 691.054688 453.746094 " clip-rule="nonzero"/></clipPath></defs><path fill="#0a2b4d" d="M 561.539062 578.726562 C 559.179688 574.320312 553.695312 572.660156 549.285156 575.015625 C 544.875 577.375 543.210938 582.863281 545.574219 587.269531 L 554.238281 603.46875 C 555.871094 606.519531 558.996094 608.253906 562.230469 608.253906 C 563.671875 608.253906 565.132812 607.910156 566.496094 607.183594 C 570.902344 604.824219 572.5625 599.335938 570.207031 594.925781 L 561.539062 578.726562 " fill-opacity="1" fill-rule="nonzero"/><path fill="#0a2b4d" d="M 622.054688 507.402344 C 618.695312 503.699219 612.96875 503.417969 609.265625 506.777344 C 605.558594 510.136719 605.277344 515.863281 608.636719 519.566406 L 650.734375 565.984375 C 652.523438 567.953125 654.976562 568.957031 657.445312 568.957031 C 659.613281 568.957031 661.789062 568.179688 663.523438 566.609375 C 667.230469 563.25 667.503906 557.523438 664.144531 553.820312 L 622.054688 507.402344 " fill-opacity="1" fill-rule="nonzero"/><g clip-path="url(#01b7c081fd)"><path fill="#0a2b4d" d="M 314.535156 425.914062 L 314.972656 395.21875 L 436.773438 340.476562 C 441.335938 338.425781 443.371094 333.066406 441.320312 328.503906 C 439.273438 323.945312 433.910156 321.910156 429.351562 323.957031 L 310.832031 377.230469 C 287.367188 313.644531 316.933594 241.609375 379.667969 213.414062 C 387.101562 210.074219 394.730469 207.457031 402.484375 205.566406 C 402.773438 205.511719 403.070312 205.445312 403.355469 205.359375 C 428.433594 199.433594 454.691406 201.101562 479.3125 210.453125 C 509.003906 221.730469 533.058594 242.9375 547.878906 270.6875 L 515.921875 285.046875 C 511.359375 287.097656 509.324219 292.460938 511.375 297.019531 C 513.425781 301.578125 518.785156 303.617188 523.34375 301.566406 L 558.578125 285.730469 L 581.820312 305.78125 Z M 607.460938 309.519531 C 607.90625 306.453125 606.757812 303.378906 604.414062 301.355469 L 567.535156 269.542969 C 559.386719 252.039062 548.136719 236.558594 534.070312 223.5 C 520.015625 210.449219 503.753906 200.367188 485.742188 193.523438 C 467.734375 186.683594 448.875 183.429688 429.699219 183.855469 C 421.546875 184.039062 413.488281 184.886719 405.550781 186.390625 C 397.910156 173.003906 388.492188 160.675781 377.488281 149.671875 C 361.554688 133.742188 342.992188 121.226562 322.3125 112.480469 C 300.882812 103.414062 278.140625 98.824219 254.71875 98.824219 C 231.296875 98.824219 208.558594 103.414062 187.128906 112.480469 C 166.449219 121.226562 147.886719 133.742188 131.953125 149.671875 C 116.019531 165.605469 103.503906 184.171875 94.757812 204.851562 C 85.695312 226.277344 81.097656 249.019531 81.097656 272.441406 L 81.097656 719.949219 C 81.097656 724.953125 85.152344 729.003906 90.152344 729.003906 C 95.15625 729.003906 99.207031 724.953125 99.207031 719.949219 L 99.207031 272.441406 C 99.207031 251.457031 103.324219 231.089844 111.4375 211.902344 C 119.269531 193.382812 130.480469 176.753906 144.757812 162.476562 C 159.03125 148.203125 175.660156 136.992188 194.183594 129.160156 C 213.367188 121.042969 233.734375 116.929688 254.71875 116.929688 C 275.707031 116.929688 296.074219 121.042969 315.257812 129.160156 C 333.777344 136.992188 350.410156 148.203125 364.683594 162.476562 C 373.359375 171.152344 380.925781 180.742188 387.28125 191.078125 C 382.195312 192.738281 377.179688 194.675781 372.242188 196.894531 C 365.113281 200.097656 358.3125 203.8125 351.867188 208.015625 C 343.648438 195.683594 333.050781 184.875 320.859375 176.449219 C 306.078125 166.238281 288.902344 159.511719 271.183594 156.996094 C 265.765625 156.226562 260.226562 155.835938 254.71875 155.835938 C 190.421875 155.835938 138.113281 208.144531 138.113281 272.441406 L 138.113281 719.949219 C 138.113281 724.953125 142.167969 729.003906 147.167969 729.003906 C 152.167969 729.003906 156.222656 724.953125 156.222656 719.949219 L 156.222656 272.441406 C 156.222656 218.128906 200.40625 173.945312 254.71875 173.945312 C 259.378906 173.945312 264.0625 174.273438 268.636719 174.921875 C 296.601562 178.894531 321.855469 195.148438 337.3125 218.835938 C 332.761719 222.679688 328.433594 226.804688 324.347656 231.207031 C 311.296875 245.265625 301.210938 261.527344 294.371094 279.535156 C 287.527344 297.546875 284.277344 316.402344 284.703125 335.582031 C 285.132812 354.765625 289.238281 373.457031 296.917969 391.171875 L 296.226562 439.871094 C 296.179688 442.964844 297.722656 445.871094 300.308594 447.570312 C 301.808594 448.550781 303.539062 449.058594 305.28125 449.058594 C 306.539062 449.058594 307.804688 448.792969 308.992188 448.261719 L 602.210938 316.46875 C 605.039062 315.199219 607.011719 312.578125 607.460938 309.519531 " fill-opacity="1" fill-rule="nonzero"/></g><path fill="#0a2b4d" d="M 496.375 447.535156 C 494.167969 443.046875 488.746094 441.199219 484.253906 443.402344 C 479.769531 445.609375 477.917969 451.035156 480.125 455.523438 L 509.167969 514.597656 C 510.742188 517.800781 513.957031 519.660156 517.300781 519.660156 C 518.640625 519.660156 520.003906 519.359375 521.289062 518.730469 C 525.773438 516.523438 527.625 511.097656 525.417969 506.609375 L 496.375 447.535156 " fill-opacity="1" fill-rule="nonzero"/><path fill="#0a2b4d" d="M 557.1875 432.246094 C 553.953125 428.425781 548.242188 427.953125 544.425781 431.183594 C 540.609375 434.414062 540.128906 440.125 543.363281 443.945312 L 570.410156 475.90625 C 572.199219 478.019531 574.753906 479.109375 577.324219 479.109375 C 579.390625 479.109375 581.46875 478.40625 583.167969 476.96875 C 586.984375 473.738281 587.460938 468.027344 584.230469 464.207031 L 557.1875 432.246094 " fill-opacity="1" fill-rule="nonzero"/><g clip-path="url(#395f7a1462)"><path fill="#0a2b4d" d="M 725.164062 469.832031 L 705.613281 455.605469 C 701.574219 452.664062 695.90625 453.558594 692.964844 457.597656 C 690.019531 461.640625 690.914062 467.304688 694.960938 470.246094 L 714.507812 484.472656 C 716.117188 485.644531 717.980469 486.207031 719.828125 486.207031 C 722.625 486.207031 725.382812 484.917969 727.15625 482.480469 C 730.101562 478.441406 729.207031 472.777344 725.164062 469.832031 " fill-opacity="1" fill-rule="nonzero"/></g><path fill="#0a2b4d" d="M 576.367188 372.734375 C 573.421875 376.777344 574.3125 382.441406 578.359375 385.382812 L 646.433594 434.925781 C 648.042969 436.097656 649.90625 436.664062 651.753906 436.664062 C 654.550781 436.664062 657.308594 435.371094 659.082031 432.9375 C 662.023438 428.890625 661.132812 423.230469 657.089844 420.289062 L 589.015625 370.742188 C 584.96875 367.796875 579.308594 368.691406 576.367188 372.734375 " fill-opacity="1" fill-rule="nonzero"/><path fill="#0a2b4d" d="M 367.894531 593.574219 C 362.894531 593.445312 358.730469 597.375 358.59375 602.375 L 357.25 650.714844 C 357.109375 655.710938 361.050781 659.875 366.046875 660.015625 C 366.136719 660.015625 366.21875 660.015625 366.304688 660.015625 C 371.1875 660.015625 375.214844 656.128906 375.351562 651.214844 L 376.695312 602.878906 C 376.832031 597.878906 372.894531 593.714844 367.894531 593.574219 " fill-opacity="1" fill-rule="nonzero"/><path fill="#0a2b4d" d="M 371.230469 473.585938 C 366.222656 473.449219 362.066406 477.382812 361.929688 482.386719 L 360.144531 546.484375 C 360.007812 551.484375 363.945312 555.648438 368.945312 555.789062 C 369.03125 555.789062 369.117188 555.789062 369.203125 555.789062 C 374.085938 555.789062 378.113281 551.898438 378.246094 546.988281 L 380.03125 482.886719 C 380.167969 477.886719 376.230469 473.722656 371.230469 473.585938 " fill-opacity="1" fill-rule="nonzero"/><path fill="#0a2b4d" d="M 472.054688 600.910156 C 470.835938 596.0625 465.917969 593.117188 461.066406 594.332031 C 456.214844 595.546875 453.269531 600.46875 454.488281 605.316406 L 467.910156 658.796875 C 468.9375 662.910156 472.628906 665.652344 476.683594 665.652344 C 477.414062 665.652344 478.152344 665.5625 478.890625 665.378906 C 483.742188 664.160156 486.6875 659.242188 485.46875 654.390625 L 472.054688 600.910156 " fill-opacity="1" fill-rule="nonzero"/><path fill="#0a2b4d" d="M 444.488281 491.0625 C 443.273438 486.210938 438.351562 483.265625 433.503906 484.484375 C 428.652344 485.699219 425.707031 490.617188 426.921875 495.46875 L 432.351562 517.105469 C 433.386719 521.214844 437.074219 523.957031 441.128906 523.957031 C 441.855469 523.957031 442.601562 523.867188 443.339844 523.679688 C 448.1875 522.464844 451.132812 517.546875 449.917969 512.695312 L 444.488281 491.0625 " fill-opacity="1" fill-rule="nonzero"/></svg>