<svg xmlns="http://www.w3.org/2000/svg" xmlns:xlink="http://www.w3.org/1999/xlink" width="1080" zoomAndPan="magnify" viewBox="0 0 810 809.999993" height="1080" preserveAspectRatio="xMidYMid meet" version="1.0"><defs><clipPath id="e4aff9cc94"><path d="M 187.964844 82 L 622.214844 82 L 622.214844 723.75 L 187.964844 723.75 Z M 187.964844 82 " clip-rule="nonzero"/></clipPath></defs><g clip-path="url(#e4aff9cc94)"><path fill="#112942" d="M 622.160156 299.046875 C 622.160156 297.488281 621.359375 296.0625 620.066406 295.214844 C 618.773438 294.367188 590.386719 276.542969 557.632812 268.476562 C 584.773438 248.464844 604.113281 221.101562 604.960938 219.8125 C 605.851562 218.519531 606.027344 216.871094 605.40625 215.445312 C 604.824219 214.019531 603.535156 212.992188 601.972656 212.726562 C 600.457031 212.457031 568.058594 207.019531 535.039062 211.96875 C 552.148438 183.3125 559.457031 151.269531 559.769531 149.753906 C 560.082031 148.238281 559.636719 146.636719 558.523438 145.566406 C 557.410156 144.453125 555.847656 144.007812 554.332031 144.316406 C 552.820312 144.628906 520.152344 152.117188 491.273438 169.585938 C 496.308594 136.207031 490.605469 103.183594 490.339844 101.625 C 490.070312 100.109375 489 98.816406 487.574219 98.195312 C 486.148438 97.613281 484.5 97.792969 483.207031 98.683594 C 481.960938 99.574219 455.175781 118.648438 435.300781 145.476562 C 427.101562 113.121094 409.632812 85.269531 408.828125 84.023438 C 407.136719 81.390625 402.8125 81.390625 401.164062 84.023438 C 400.316406 85.3125 382.492188 113.703125 374.46875 146.457031 C 354.503906 119.363281 327.097656 100.066406 325.804688 99.175781 C 324.511719 98.28125 322.863281 98.105469 321.4375 98.726562 C 320.011719 99.308594 318.988281 100.601562 318.71875 102.160156 C 318.453125 103.675781 313.015625 136.117188 318.007812 169.140625 C 289.304688 152.027344 257.265625 144.675781 255.792969 144.363281 C 254.277344 144.050781 252.671875 144.496094 251.605469 145.609375 C 250.488281 146.726562 250.042969 148.285156 250.355469 149.800781 C 250.667969 151.316406 258.15625 183.980469 275.625 212.859375 C 242.289062 207.867188 209.265625 213.527344 207.753906 213.792969 C 206.238281 214.0625 204.945312 215.132812 204.320312 216.558594 C 203.742188 217.984375 203.917969 219.632812 204.8125 220.925781 C 205.703125 222.171875 224.777344 248.910156 251.605469 268.742188 C 219.25 276.898438 191.398438 294.414062 190.105469 295.257812 C 188.769531 296.0625 187.964844 297.488281 187.964844 299.046875 C 187.964844 300.605469 188.769531 302.035156 190.058594 302.878906 C 191.351562 303.726562 219.695312 321.554688 252.449219 329.574219 C 225.355469 349.671875 206.058594 377.035156 205.167969 378.285156 C 204.277344 379.578125 204.097656 381.226562 204.722656 382.652344 C 205.300781 384.078125 206.59375 385.101562 208.152344 385.371094 C 209.179688 385.546875 225.132812 388.265625 245.855469 388.265625 C 255.035156 388.265625 265.152344 387.417969 275.3125 385.859375 C 258.066406 414.605469 250.710938 446.824219 250.402344 448.296875 C 250.089844 449.8125 250.535156 451.414062 251.648438 452.484375 C 252.496094 453.332031 253.699219 453.820312 254.855469 453.820312 C 255.167969 453.820312 255.527344 453.777344 255.835938 453.734375 C 257.351562 453.421875 290.019531 445.933594 318.898438 428.464844 C 313.863281 461.796875 319.566406 494.820312 319.832031 496.335938 C 320.101562 497.851562 321.171875 499.144531 322.597656 499.769531 C 323.175781 499.992188 323.753906 500.125 324.335938 500.125 C 325.269531 500.125 326.160156 499.855469 326.964844 499.277344 C 328.210938 498.386719 354.996094 479.3125 374.828125 452.484375 C 382.269531 482.296875 397.421875 507.921875 400.496094 512.871094 L 400.496094 600.753906 C 396.039062 591.214844 389.042969 581.589844 378.125 574.859375 C 354.460938 560.289062 319.878906 563.851562 275.355469 585.421875 C 274.289062 585.554688 273.308594 586.046875 272.59375 586.890625 C 271.390625 588.230469 271.078125 590.144531 271.792969 591.792969 C 292.023438 637.609375 316.269531 662.699219 343.808594 666.308594 C 346.171875 666.621094 348.445312 666.753906 350.714844 666.753906 C 373.132812 666.753906 391.179688 652.804688 400.496094 643.847656 L 400.496094 719.25 C 400.496094 721.746094 402.546875 723.796875 405.042969 723.796875 C 407.535156 723.796875 409.585938 721.746094 409.585938 719.25 L 409.585938 630.789062 C 418.679688 637.074219 435.121094 646.296875 453.929688 646.296875 C 459.054688 646.296875 464.355469 645.628906 469.703125 643.980469 C 496.308594 635.914062 516.097656 607.214844 528.574219 558.683594 C 529.019531 556.945312 528.398438 555.074219 526.972656 553.960938 C 526.125 553.289062 525.054688 552.933594 523.984375 552.980469 C 476.523438 538.984375 441.808594 541.125 420.863281 559.394531 C 415.960938 563.628906 412.484375 568.53125 409.585938 573.566406 L 409.585938 512.914062 C 412.707031 507.921875 428.171875 481.808594 435.613281 451.59375 C 455.710938 478.734375 483.074219 498.074219 484.320312 498.964844 C 485.078125 499.5 486.015625 499.769531 486.90625 499.769531 C 487.488281 499.769531 488.109375 499.632812 488.644531 499.410156 C 490.070312 498.832031 491.097656 497.539062 491.363281 495.980469 C 491.632812 494.464844 497.023438 462.066406 492.121094 429 C 520.820312 446.113281 552.863281 453.421875 554.332031 453.777344 C 554.644531 453.867188 555.003906 453.867188 555.3125 453.867188 C 556.515625 453.867188 557.675781 453.375 558.523438 452.527344 C 559.636719 451.414062 560.082031 449.855469 559.769531 448.339844 C 559.457031 446.824219 551.925781 414.023438 534.367188 385.058594 C 544.394531 386.574219 554.421875 387.464844 563.558594 387.464844 C 584.816406 387.464844 601.351562 384.566406 602.417969 384.34375 C 603.933594 384.078125 605.226562 383.007812 605.851562 381.582031 C 606.476562 380.15625 606.25 378.507812 605.359375 377.214844 C 604.46875 375.964844 585.394531 349.226562 558.566406 329.351562 C 590.921875 321.152344 618.730469 303.683594 620.023438 302.878906 C 621.359375 302.078125 622.160156 300.605469 622.160156 299.046875 Z M 592.925781 220.703125 C 584.90625 230.953125 566.945312 251.988281 545.242188 266.023438 C 524.789062 262.90625 507.761719 265.535156 494.214844 273.511719 C 492.253906 266.695312 489.582031 260.277344 486.195312 254.171875 C 501.703125 250.160156 515.828125 239.640625 528.261719 222.441406 C 553.175781 217.183594 580.136719 219.1875 592.925781 220.703125 Z M 405.085938 383.050781 C 358.78125 383.050781 321.082031 345.351562 321.082031 299.046875 C 321.082031 252.746094 358.738281 215.042969 405.085938 215.042969 C 451.390625 215.042969 489.089844 252.699219 489.089844 299.046875 C 489.046875 345.351562 451.390625 383.050781 405.085938 383.050781 Z M 522.023438 215.621094 C 509.945312 232.957031 496.265625 243.03125 481.46875 246.058594 C 475.140625 236.96875 467.210938 229.035156 458.117188 222.664062 C 461.058594 208.089844 470.863281 194.632812 487.753906 182.734375 C 509.234375 167.492188 536.285156 158.710938 549.074219 155.101562 C 545.464844 167.757812 536.863281 194.277344 522.023438 215.621094 Z M 482.496094 110.804688 C 484.097656 123.730469 486.238281 151.269531 480.847656 176.628906 C 464.132812 188.839844 453.929688 202.789062 450.007812 217.984375 C 443.945312 214.597656 437.484375 211.921875 430.667969 209.960938 C 438.777344 196.148438 441.363281 178.765625 437.976562 157.777344 C 451.921875 136.429688 472.378906 118.738281 482.496094 110.804688 Z M 405.042969 95.519531 C 411.457031 106.929688 424.113281 131.75 428.707031 157.332031 C 432.449219 178.1875 429.863281 195.03125 421.53125 207.644531 C 416.136719 206.664062 410.699219 205.996094 405.042969 205.996094 C 399.382812 205.996094 393.945312 206.710938 388.550781 207.644531 C 380.351562 195.253906 377.722656 178.8125 381.199219 158.445312 C 385.65625 132.464844 398.535156 107.105469 405.042969 95.519531 Z M 326.695312 111.207031 C 336.945312 119.226562 357.980469 137.1875 372.0625 158.933594 C 368.945312 179.390625 371.574219 196.460938 379.503906 209.960938 C 372.6875 211.921875 366.226562 214.640625 360.164062 218.027344 C 356.152344 202.566406 345.726562 188.4375 328.523438 176.046875 C 323.21875 151.003906 325.179688 123.996094 326.695312 111.207031 Z M 321.660156 182.152344 C 338.996094 194.277344 349.066406 207.914062 352.054688 222.707031 C 342.960938 229.035156 335.03125 236.96875 328.703125 246.058594 C 314.128906 243.074219 300.671875 233.269531 288.726562 216.46875 C 273.53125 194.988281 264.75 167.9375 261.140625 155.148438 C 273.753906 158.667969 300.3125 167.3125 321.660156 182.152344 Z M 216.84375 221.683594 C 229.765625 220.078125 257.308594 217.9375 282.578125 223.332031 C 294.832031 240 308.78125 250.203125 323.976562 254.171875 C 320.589844 260.230469 317.917969 266.695312 315.957031 273.511719 C 302.140625 265.402344 284.761719 262.816406 263.816406 266.203125 C 242.46875 252.210938 224.820312 231.753906 216.84375 221.683594 Z M 263.371094 275.382812 C 284.226562 271.640625 301.027344 274.226562 313.636719 282.558594 C 312.65625 287.90625 311.988281 293.386719 311.988281 299.046875 C 311.988281 304.707031 312.703125 310.1875 313.636719 315.535156 C 301.203125 323.78125 284.714844 326.367188 264.304688 322.890625 C 238.367188 318.476562 213.054688 305.554688 201.511719 299.046875 C 212.921875 292.628906 237.789062 279.972656 263.371094 275.382812 Z M 217.199219 377.4375 C 225.222656 367.1875 243.136719 346.195312 264.839844 332.070312 C 270.632812 332.960938 276.25 333.585938 281.507812 333.585938 C 294.875 333.585938 306.105469 330.066406 315.867188 324.316406 C 317.828125 331.222656 320.546875 337.773438 323.976562 343.96875 C 308.46875 347.980469 294.34375 358.496094 281.953125 375.699219 C 256.996094 380.914062 229.988281 378.953125 217.199219 377.4375 Z M 288.191406 382.519531 C 300.222656 365.183594 313.863281 355.109375 328.703125 352.078125 C 335.03125 361.171875 342.917969 369.105469 352.054688 375.433594 C 349.113281 390.003906 339.308594 403.464844 322.460938 415.453125 C 300.980469 430.648438 273.929688 439.425781 261.140625 443.035156 C 264.660156 430.378906 273.308594 403.863281 288.191406 382.519531 Z M 327.675781 487.289062 C 326.070312 474.367188 323.933594 446.824219 329.324219 421.511719 C 346.039062 409.210938 356.199219 395.308594 360.164062 380.066406 C 366.226562 383.453125 372.6875 386.128906 379.503906 388.089844 C 371.4375 401.859375 368.855469 419.238281 372.242188 440.183594 C 358.246094 461.621094 337.75 479.3125 327.675781 487.289062 Z M 344.96875 657.261719 C 321.617188 654.183594 300.449219 632.347656 281.996094 592.328125 C 322.195312 573.34375 352.898438 570.089844 373.265625 582.570312 C 391.894531 594.023438 397.152344 616.214844 398.667969 627.222656 L 347.242188 610.511719 C 344.832031 609.753906 342.25 611.046875 341.492188 613.453125 C 340.6875 615.859375 342.027344 618.445312 344.433594 619.203125 L 395.636719 635.871094 C 387.125 644.292969 367.785156 660.246094 344.96875 657.261719 Z M 426.878906 566.304688 C 444.925781 550.570312 475.765625 548.789062 518.546875 560.957031 C 506.917969 603.425781 489.625 628.425781 467.121094 635.289062 C 445.105469 641.976562 423.3125 629.363281 413.554688 622.457031 L 456.289062 599.773438 C 458.519531 598.570312 459.367188 595.804688 458.164062 593.621094 C 456.960938 591.394531 454.195312 590.546875 452.011719 591.75 L 409.632812 614.253906 L 409.632812 603.246094 C 410.835938 591.527344 414.933594 576.730469 426.878906 566.304688 Z M 405.042969 502.621094 C 398.625 491.210938 385.96875 466.34375 381.421875 440.71875 C 377.679688 419.863281 380.21875 403.105469 388.550781 390.496094 C 393.945312 391.476562 399.425781 392.144531 405.042969 392.144531 C 410.699219 392.144531 416.183594 391.429688 421.574219 390.496094 C 429.773438 402.882812 432.359375 419.328125 428.882812 439.738281 C 424.472656 465.675781 411.59375 491.035156 405.042969 502.621094 Z M 483.476562 486.933594 C 473.226562 478.910156 452.234375 460.953125 438.109375 439.203125 C 441.226562 418.75 438.597656 401.679688 430.667969 388.132812 C 437.484375 386.171875 443.902344 383.5 449.960938 380.109375 C 453.972656 395.574219 464.445312 409.746094 481.691406 422.136719 C 486.953125 447.136719 484.992188 474.144531 483.476562 486.933594 Z M 488.554688 415.984375 C 471.175781 403.910156 461.105469 390.226562 458.117188 375.433594 C 467.210938 369.105469 475.140625 361.171875 481.46875 352.078125 C 496.042969 355.066406 509.5 364.871094 521.445312 381.671875 C 536.640625 403.152344 545.421875 430.203125 549.03125 442.992188 C 536.417969 439.425781 509.902344 430.824219 488.554688 415.984375 Z M 593.328125 376.457031 C 580.402344 378.0625 552.863281 380.199219 527.59375 374.808594 C 515.292969 358.097656 501.390625 347.933594 486.148438 343.96875 C 489.582031 337.820312 492.300781 331.269531 494.261719 324.316406 C 504.019531 330.066406 515.25 333.585938 528.664062 333.585938 C 534.234375 333.585938 540.160156 332.917969 546.3125 331.9375 C 567.660156 345.886719 585.351562 366.339844 593.328125 376.457031 Z M 546.800781 322.757812 C 525.945312 326.5 509.144531 323.914062 496.53125 315.535156 C 497.511719 310.144531 498.183594 304.707031 498.183594 299.046875 C 498.183594 293.386719 497.46875 287.949219 496.53125 282.558594 C 508.964844 274.3125 525.367188 271.730469 545.734375 275.160156 C 571.667969 279.574219 597.027344 292.496094 608.613281 299.046875 C 597.207031 305.464844 572.382812 318.121094 546.800781 322.757812 Z M 473.179688 294.949219 C 473.179688 276.71875 465.335938 259.339844 451.613281 247.261719 C 449.738281 245.613281 449.515625 242.71875 451.210938 240.847656 C 452.859375 238.972656 455.757812 238.75 457.628906 240.445312 C 473.316406 254.214844 482.273438 274.089844 482.273438 294.949219 C 482.273438 297.488281 480.222656 299.492188 477.726562 299.492188 C 475.230469 299.492188 473.179688 297.488281 473.179688 294.949219 Z M 444.035156 230.953125 C 446.265625 232.15625 447.066406 234.917969 445.90625 237.148438 C 445.058594 238.660156 443.5 239.554688 441.894531 239.554688 C 441.183594 239.554688 440.425781 239.375 439.757812 239.019531 C 430.578125 234.070312 420.238281 231.488281 409.71875 231.488281 C 407.449219 231.488281 405.796875 229.75 405.441406 227.609375 C 405.265625 229.703125 403.882812 231.578125 401.699219 231.84375 L 399.160156 232.15625 C 398.980469 232.199219 398.757812 232.199219 398.578125 232.199219 C 396.304688 232.199219 394.34375 230.507812 394.078125 228.1875 C 393.765625 225.695312 395.550781 223.421875 398.042969 223.109375 L 400.585938 222.796875 C 402.859375 222.484375 404.863281 224.089844 405.398438 226.316406 C 405.753906 224.132812 407.449219 222.394531 409.71875 222.394531 C 421.664062 222.351562 433.5625 225.335938 444.035156 230.953125 Z M 481.871094 309.296875 L 481.558594 311.835938 C 481.292969 314.15625 479.285156 315.847656 477.058594 315.847656 C 476.878906 315.847656 476.703125 315.847656 476.480469 315.804688 C 473.984375 315.492188 472.199219 313.21875 472.511719 310.722656 L 472.824219 308.183594 C 473.136719 305.6875 475.453125 303.90625 477.90625 304.21875 C 480.402344 304.527344 482.183594 306.800781 481.871094 309.296875 Z M 458.296875 593.445312 C 457.136719 591.214844 457.941406 588.453125 460.167969 587.292969 L 477.859375 577.890625 C 480.089844 576.6875 482.851562 577.535156 484.011719 579.761719 C 485.167969 581.992188 484.320312 584.753906 482.136719 585.910156 L 464.445312 595.316406 C 463.777344 595.671875 463.019531 595.851562 462.308594 595.851562 C 460.703125 595.894531 459.144531 595.003906 458.296875 593.445312 Z M 333.113281 610.644531 C 332.488281 612.5625 330.707031 613.808594 328.789062 613.808594 C 328.34375 613.808594 327.855469 613.71875 327.363281 613.585938 C 319.566406 611.046875 318.007812 610.601562 317.472656 610.46875 C 317.382812 610.46875 317.027344 610.332031 316.9375 610.289062 C 314.53125 609.488281 313.28125 606.902344 314.085938 604.496094 C 314.886719 602.132812 317.472656 600.839844 319.832031 601.597656 C 320.5 601.777344 322.152344 602.265625 330.171875 604.851562 C 332.625 605.65625 333.914062 608.238281 333.113281 610.644531 Z M 333.113281 610.644531 " fill-opacity="1" fill-rule="nonzero"/></g></svg>