<svg xmlns="http://www.w3.org/2000/svg" xmlns:xlink="http://www.w3.org/1999/xlink" width="1080" zoomAndPan="magnify" viewBox="0 0 810 809.999993" height="1080" preserveAspectRatio="xMidYMid meet" version="1.0"><defs><g/></defs><g fill="#112942" fill-opacity="1"><g transform="translate(269.299787, 217.519751)"><g><path d="M 106.421875 -127.4375 L 60.671875 0 L 45.765625 0 L 0 -127.4375 L 15.515625 -127.4375 L 45.328125 -43.5 C 46.546875 -40.125 47.632812 -36.894531 48.59375 -33.8125 C 49.550781 -30.738281 50.40625 -27.773438 51.15625 -24.921875 C 51.914062 -22.078125 52.585938 -19.320312 53.171875 -16.65625 C 53.753906 -19.320312 54.421875 -22.09375 55.171875 -24.96875 C 55.929688 -27.84375 56.800781 -30.832031 57.78125 -33.9375 C 58.769531 -37.050781 59.878906 -40.320312 61.109375 -43.75 L 90.734375 -127.4375 Z M 106.421875 -127.4375 "/></g></g></g><g fill="#112942" fill-opacity="1"><g transform="translate(384.096979, 217.519751)"><g><path d="M 17.4375 0 L 17.4375 -127.4375 L 32.25 -127.4375 L 32.25 0 Z M 17.4375 0 "/></g></g></g><g fill="#112942" fill-opacity="1"><g transform="translate(442.336072, 217.519751)"><g><path d="M 56.578125 0 L 41.671875 0 L 41.671875 -114.359375 L 1.5625 -114.359375 L 1.5625 -127.4375 L 96.5 -127.4375 L 96.5 -114.359375 L 56.578125 -114.359375 Z M 56.578125 0 "/></g></g></g><g fill="#112942" fill-opacity="1"><g transform="translate(237.941471, 736.470777)"><g><path d="M 307.109375 0 L 62.953125 0 L 62.953125 -446.765625 L 307.109375 -446.765625 L 307.109375 -418.34375 L 94.421875 -418.34375 L 94.421875 -249.046875 L 295.1875 -249.046875 L 295.1875 -220.625 L 94.421875 -220.625 L 94.421875 -28.421875 L 307.109375 -28.421875 Z M 307.109375 0 "/></g></g></g></svg>