<svg xmlns="http://www.w3.org/2000/svg" xmlns:xlink="http://www.w3.org/1999/xlink" width="1080" zoomAndPan="magnify" viewBox="0 0 810 809.999993" height="1080" preserveAspectRatio="xMidYMid meet" version="1.0"><defs><clipPath id="dc932553d8"><path d="M 400 233 L 411 233 L 411 727.765625 L 400 727.765625 Z M 400 233 " clip-rule="nonzero"/></clipPath><clipPath id="1dfff0ef39"><path d="M 400 194 L 507.628906 194 L 507.628906 321 L 400 321 Z M 400 194 " clip-rule="nonzero"/></clipPath><clipPath id="a0f833c03c"><path d="M 400 297 L 507.628906 297 L 507.628906 424 L 400 424 Z M 400 297 " clip-rule="nonzero"/></clipPath><clipPath id="1818b7e3e7"><path d="M 400 399.125 L 507.628906 399.125 L 507.628906 526 L 400 526 Z M 400 399.125 " clip-rule="nonzero"/></clipPath><clipPath id="08086c28b9"><path d="M 400 502 L 507.628906 502 L 507.628906 628.214844 L 400 628.214844 Z M 400 502 " clip-rule="nonzero"/></clipPath></defs><path fill="#0a2b4d" d="M 405.488281 94.964844 C 379.714844 126.863281 372.101562 159.679688 382.859375 192.585938 C 389.054688 211.554688 399.976562 225.441406 405.488281 231.625 C 411.007812 225.441406 421.917969 211.554688 428.113281 192.585938 C 438.886719 159.679688 431.269531 126.863281 405.488281 94.964844 Z M 405.488281 243.773438 C 404.273438 243.773438 403.058594 243.339844 402.097656 242.445312 C 401.324219 241.722656 382.910156 224.355469 373.550781 196.089844 C 364.863281 169.867188 362.699219 129.136719 401.738281 83.976562 C 402.667969 82.886719 404.050781 82.265625 405.488281 82.265625 C 406.933594 82.265625 408.304688 82.886719 409.246094 83.976562 C 448.273438 129.136719 446.109375 169.867188 437.421875 196.089844 C 428.0625 224.355469 409.648438 241.722656 408.875 242.445312 C 407.921875 243.332031 406.699219 243.773438 405.488281 243.773438 " fill-opacity="1" fill-rule="evenodd"/><g clip-path="url(#dc932553d8)"><path fill="#0a2b4d" d="M 405.488281 727.765625 C 402.742188 727.765625 400.519531 725.539062 400.519531 722.796875 L 400.519531 238.8125 C 400.519531 236.070312 402.742188 233.84375 405.488281 233.84375 C 408.230469 233.84375 410.453125 236.070312 410.453125 238.8125 L 410.453125 722.796875 C 410.453125 725.539062 408.230469 727.765625 405.488281 727.765625 " fill-opacity="1" fill-rule="evenodd"/></g><g clip-path="url(#1dfff0ef39)"><path fill="#0a2b4d" d="M 405.488281 320.957031 C 402.859375 320.957031 400.664062 318.898438 400.535156 316.25 C 400.394531 313.507812 402.5 311.179688 405.230469 311.035156 C 405.464844 311.023438 429.328125 309.589844 452.539062 295.148438 C 481.941406 276.863281 497.210938 246.824219 497.992188 205.828125 C 427.429688 219.636719 412.800781 269.289062 410.4375 298.160156 C 410.203125 300.890625 407.789062 302.929688 405.085938 302.699219 C 402.34375 302.476562 400.316406 300.070312 400.535156 297.347656 C 401.777344 282.191406 406.363281 259.898438 421.199219 239.707031 C 438.703125 215.871094 465.949219 200.839844 502.179688 195.003906 C 503.605469 194.769531 505.050781 195.171875 506.160156 196.101562 C 507.257812 197.03125 507.902344 198.390625 507.933594 199.828125 C 508.769531 259.511719 480.933594 289.316406 457.429688 303.8125 C 432.070312 319.445312 406.804688 320.890625 405.742188 320.957031 C 405.65625 320.957031 405.5625 320.957031 405.488281 320.957031 " fill-opacity="1" fill-rule="evenodd"/></g><path fill="#0a2b4d" d="M 405.488281 320.957031 C 405.410156 320.957031 405.316406 320.957031 405.230469 320.957031 C 404.167969 320.890625 378.914062 319.445312 353.546875 303.8125 C 330.039062 289.316406 302.203125 259.511719 303.039062 199.828125 C 303.070312 198.390625 303.714844 197.03125 304.8125 196.101562 C 305.921875 195.171875 307.375 194.769531 308.796875 195.003906 C 345.023438 200.839844 372.269531 215.875 389.773438 239.707031 C 404.609375 259.898438 409.199219 282.191406 410.4375 297.347656 C 410.65625 300.070312 408.628906 302.476562 405.886719 302.699219 C 403.160156 302.929688 400.769531 300.890625 400.535156 298.160156 C 398.171875 269.289062 383.542969 219.636719 312.984375 205.828125 C 313.761719 246.996094 329.136719 277.101562 358.753906 295.351562 C 381.980469 309.664062 405.5 311.023438 405.742188 311.035156 C 408.472656 311.179688 410.582031 313.507812 410.4375 316.25 C 410.308594 318.898438 408.113281 320.957031 405.488281 320.957031 " fill-opacity="1" fill-rule="evenodd"/><g clip-path="url(#a0f833c03c)"><path fill="#0a2b4d" d="M 405.488281 423.363281 C 402.859375 423.363281 400.664062 421.304688 400.535156 418.65625 C 400.394531 415.910156 402.5 413.574219 405.230469 413.449219 C 405.464844 413.429688 429.328125 411.996094 452.539062 397.554688 C 481.941406 379.269531 497.210938 349.238281 497.992188 308.234375 C 427.429688 322.042969 412.800781 371.695312 410.4375 400.566406 C 410.203125 403.296875 407.789062 405.324219 405.085938 405.101562 C 402.34375 404.882812 400.316406 402.484375 400.535156 399.75 C 401.777344 384.597656 406.363281 362.304688 421.199219 342.113281 C 438.703125 318.28125 465.949219 303.242188 502.179688 297.410156 C 503.605469 297.175781 505.050781 297.578125 506.160156 298.507812 C 507.257812 299.425781 507.902344 300.796875 507.933594 302.234375 C 508.769531 361.917969 480.933594 391.722656 457.429688 406.21875 C 432.070312 421.851562 406.804688 423.296875 405.742188 423.363281 C 405.65625 423.363281 405.5625 423.363281 405.488281 423.363281 " fill-opacity="1" fill-rule="evenodd"/></g><path fill="#0a2b4d" d="M 405.488281 423.363281 C 405.410156 423.363281 405.316406 423.363281 405.230469 423.363281 C 404.167969 423.296875 378.914062 421.851562 353.546875 406.21875 C 330.039062 391.722656 302.203125 361.917969 303.039062 302.234375 C 303.070312 300.796875 303.714844 299.425781 304.8125 298.507812 C 305.921875 297.578125 307.375 297.175781 308.796875 297.410156 C 345.023438 303.242188 372.269531 318.28125 389.773438 342.113281 C 404.609375 362.304688 409.199219 384.597656 410.4375 399.75 C 410.65625 402.484375 408.628906 404.882812 405.886719 405.101562 C 403.160156 405.324219 400.769531 403.296875 400.535156 400.566406 C 398.171875 371.695312 383.542969 322.042969 312.984375 308.234375 C 313.761719 349.398438 329.136719 379.507812 358.753906 397.765625 C 381.980469 412.078125 405.5 413.429688 405.742188 413.449219 C 408.472656 413.574219 410.582031 415.917969 410.4375 418.65625 C 410.308594 421.304688 408.113281 423.363281 405.488281 423.363281 " fill-opacity="1" fill-rule="evenodd"/><g clip-path="url(#1818b7e3e7)"><path fill="#0a2b4d" d="M 405.488281 525.765625 C 402.859375 525.765625 400.664062 523.714844 400.535156 521.058594 C 400.394531 518.324219 402.5 515.980469 405.230469 515.855469 C 405.464844 515.84375 429.328125 514.390625 452.539062 499.960938 C 481.941406 481.679688 497.210938 451.644531 497.992188 410.640625 C 427.429688 424.449219 412.800781 474.101562 410.4375 502.976562 C 410.203125 505.703125 407.789062 507.71875 405.085938 507.507812 C 402.34375 507.292969 400.316406 504.886719 400.535156 502.15625 C 401.777344 487.003906 406.363281 464.710938 421.199219 444.519531 C 438.703125 420.6875 465.949219 405.648438 502.179688 399.816406 C 503.605469 399.570312 505.050781 399.984375 506.160156 400.914062 C 507.257812 401.832031 507.902344 403.203125 507.933594 404.636719 C 508.769531 464.324219 480.933594 494.125 457.429688 508.625 C 432.070312 524.257812 406.804688 525.703125 405.742188 525.765625 C 405.65625 525.765625 405.5625 525.765625 405.488281 525.765625 " fill-opacity="1" fill-rule="evenodd"/></g><path fill="#0a2b4d" d="M 405.488281 525.765625 C 405.410156 525.765625 405.316406 525.765625 405.230469 525.765625 C 404.167969 525.703125 378.914062 524.257812 353.546875 508.625 C 330.039062 494.125 302.203125 464.324219 303.039062 404.636719 C 303.070312 403.203125 303.714844 401.832031 304.8125 400.914062 C 305.921875 399.984375 307.375 399.582031 308.796875 399.816406 C 345.023438 405.648438 372.269531 420.6875 389.773438 444.519531 C 404.609375 464.710938 409.199219 487.003906 410.4375 502.15625 C 410.65625 504.886719 408.628906 507.292969 405.886719 507.507812 C 403.160156 507.71875 400.769531 505.703125 400.535156 502.976562 C 398.171875 474.101562 383.542969 424.449219 312.984375 410.640625 C 313.761719 451.804688 329.136719 481.914062 358.753906 500.171875 C 381.980469 514.480469 405.5 515.84375 405.742188 515.855469 C 408.472656 515.980469 410.582031 518.324219 410.4375 521.058594 C 410.308594 523.714844 408.113281 525.765625 405.488281 525.765625 " fill-opacity="1" fill-rule="evenodd"/><g clip-path="url(#08086c28b9)"><path fill="#0a2b4d" d="M 405.488281 628.179688 C 402.859375 628.179688 400.664062 626.121094 400.535156 623.472656 C 400.394531 620.730469 402.5 618.386719 405.230469 618.246094 C 405.464844 618.230469 429.328125 616.796875 452.539062 602.367188 C 481.941406 584.085938 497.210938 554.050781 497.992188 513.046875 C 427.429688 526.855469 412.800781 576.507812 410.4375 605.363281 C 410.203125 608.109375 407.789062 610.136719 405.085938 609.921875 C 402.34375 609.699219 400.316406 607.292969 400.535156 604.5625 C 401.777344 589.414062 406.363281 567.117188 421.199219 546.925781 C 438.703125 523.09375 465.949219 508.054688 502.179688 502.222656 C 503.605469 501.976562 505.050781 502.390625 506.160156 503.324219 C 507.257812 504.238281 507.902344 505.613281 507.933594 507.050781 C 508.769531 566.734375 480.933594 596.539062 457.429688 611.03125 C 432.070312 626.660156 406.804688 628.109375 405.742188 628.160156 C 405.65625 628.179688 405.5625 628.179688 405.488281 628.179688 " fill-opacity="1" fill-rule="evenodd"/></g><path fill="#0a2b4d" d="M 405.488281 628.179688 C 405.410156 628.179688 405.316406 628.179688 405.230469 628.160156 C 404.167969 628.109375 378.914062 626.660156 353.546875 611.03125 C 330.039062 596.539062 302.203125 566.734375 303.039062 507.050781 C 303.070312 505.609375 303.714844 504.238281 304.8125 503.324219 C 305.921875 502.390625 307.375 501.976562 308.796875 502.222656 C 345.023438 508.054688 372.269531 523.09375 389.773438 546.925781 C 404.609375 567.117188 409.199219 589.414062 410.4375 604.5625 C 410.65625 607.292969 408.628906 609.699219 405.886719 609.921875 C 403.160156 610.136719 400.769531 608.109375 400.535156 605.363281 C 398.171875 576.507812 383.542969 526.855469 312.984375 513.046875 C 313.761719 554.21875 329.136719 584.304688 358.753906 602.574219 C 381.980469 616.886719 405.5 618.246094 405.742188 618.246094 C 408.472656 618.386719 410.582031 620.730469 410.4375 623.472656 C 410.308594 626.121094 408.113281 628.179688 405.488281 628.179688 " fill-opacity="1" fill-rule="evenodd"/></svg>